<?xml version="1.0"?>
<svg xmlns="http://www.w3.org/2000/svg" xmlns:xlink="http://www.w3.org/1999/xlink" width="512" height="512" viewBox="0 0 128 128"><defs><linearGradient id="a" x1="116.831" y1="122.016" x2="11.169" y2="16.353" gradientUnits="userSpaceOnUse"><stop offset="0" stop-color="#0d70b2"/><stop offset="1" stop-color="#00ddc1"/></linearGradient></defs><path d="M44.83,9.56V22.185a1.75,1.75,0,1,1-3.5,0V17.622H38.346v4.563a1.75,1.75,0,0,1-3.5,0V9.56a1.75,1.75,0,0,1,3.5,0v4.562H41.33V9.56a1.75,1.75,0,0,1,3.5,0Zm12.081,0V22.185a1.75,1.75,0,0,1-1.75,1.75H48.677a1.75,1.75,0,0,1-1.75-1.75V9.56a1.749,1.749,0,0,1,1.75-1.75h6.484A1.749,1.749,0,0,1,56.911,9.56Zm-3.5,1.75H50.427v9.125h2.984Zm13.831-3.5H60.758a1.75,1.75,0,1,0,0,3.5H62.25V22.185a1.75,1.75,0,1,0,3.5,0V11.31h1.492a1.75,1.75,0,0,0,0-3.5Zm12.081,3.5a1.75,1.75,0,0,0,0-3.5H72.839a1.749,1.749,0,0,0-1.75,1.75V22.185a1.75,1.75,0,0,0,1.75,1.75h6.484a1.75,1.75,0,0,0,0-3.5H74.589V17.622h4.734a1.75,1.75,0,0,0,0-3.5H74.589V11.31ZM91.4,20.435H86.67V9.56a1.75,1.75,0,0,0-3.5,0V22.185a1.75,1.75,0,0,0,1.75,1.75H91.4a1.75,1.75,0,0,0,0-3.5ZM111.875,30V40a1.75,1.75,0,1,1-3.5,0v-8.25H19.625V124.5H46.062V102.875a1.751,1.751,0,0,1,1.75-1.75H80.187a1.75,1.75,0,0,1,1.75,1.75V124.5h26.438V75.874a1.75,1.75,0,0,1,3.5,0v50.373a1.75,1.75,0,0,1-1.75,1.75H80.217c-.01,0-.02,0-.03,0H47.812c-.009,0-.019,0-.029,0H17.875a1.75,1.75,0,0,1-1.75-1.75V30a1.749,1.749,0,0,1,1.75-1.75H26.5V1.747A1.75,1.75,0,0,1,28.25,0h71.5a1.75,1.75,0,0,1,1.75,1.75v26.5h8.625A1.749,1.749,0,0,1,111.875,30ZM78.437,104.625H65.75V124.5H78.437ZM49.562,124.5H62.25V104.625H49.562ZM98,28.247V3.5H30v24.75Zm12.125,24.561a1.75,1.75,0,0,0-1.75,1.75v6.755a1.75,1.75,0,0,0,3.5,0V54.558A1.75,1.75,0,0,0,110.125,52.808ZM48,52.505a1.749,1.749,0,0,1-1.75,1.75H27.875a1.749,1.749,0,0,1-1.75-1.75V40a1.749,1.749,0,0,1,1.75-1.75H46.25A1.749,1.749,0,0,1,48,40ZM44.5,41.747H29.625v9.008H44.5ZM74.937,52.505a1.749,1.749,0,0,1-1.75,1.75H54.812a1.75,1.75,0,0,1-1.75-1.75V40a1.75,1.75,0,0,1,1.75-1.75H73.187A1.749,1.749,0,0,1,74.937,40Zm-3.5-10.758H56.562v9.008H71.437Zm30.438,10.758a1.749,1.749,0,0,1-1.75,1.75H81.75A1.749,1.749,0,0,1,80,52.505V40a1.749,1.749,0,0,1,1.75-1.75h18.375a1.749,1.749,0,0,1,1.75,1.75Zm-3.5-10.758H83.5v9.008H98.375ZM48,72.686a1.75,1.75,0,0,1-1.75,1.75H27.875a1.75,1.75,0,0,1-1.75-1.75V60.177a1.75,1.75,0,0,1,1.75-1.75H46.25A1.75,1.75,0,0,1,48,60.177ZM44.5,61.927H29.625v9.009H44.5ZM74.937,72.686a1.75,1.75,0,0,1-1.75,1.75H54.812a1.751,1.751,0,0,1-1.75-1.75V60.177a1.751,1.751,0,0,1,1.75-1.75H73.187a1.75,1.75,0,0,1,1.75,1.75Zm-3.5-10.759H56.562v9.009H71.437Zm30.438,10.759a1.75,1.75,0,0,1-1.75,1.75H81.75A1.75,1.75,0,0,1,80,72.686V60.177a1.75,1.75,0,0,1,1.75-1.75h18.375a1.75,1.75,0,0,1,1.75,1.75Zm-3.5-10.759H83.5v9.009H98.375ZM34.846,91.117a1.75,1.75,0,1,0,0,3.5h11.4A1.75,1.75,0,0,0,48,92.867V80.358a1.75,1.75,0,0,0-1.75-1.75H27.875a1.75,1.75,0,0,0-1.75,1.75v6.254a1.75,1.75,0,0,0,3.5,0v-4.5H44.5v9.009ZM74.937,80.358V92.867a1.75,1.75,0,0,1-1.75,1.75H54.812a1.751,1.751,0,0,1-1.75-1.75V80.358a1.751,1.751,0,0,1,1.75-1.75H73.187A1.75,1.75,0,0,1,74.937,80.358Zm-3.5,1.75H56.562v9.009H71.437Zm30.438-1.75V92.867a1.75,1.75,0,0,1-1.75,1.75H81.75A1.75,1.75,0,0,1,80,92.867V80.358a1.75,1.75,0,0,1,1.75-1.75h18.375A1.75,1.75,0,0,1,101.875,80.358Zm-3.5,1.75H83.5v9.009H98.375Z" fill="url(#a)"/></svg>
